<mxfile host="app.diagrams.net" modified="2022-12-18T11:53:14.680Z" agent="5.0 (X11; Ubuntu)" etag="7VU8E_NK5XUq9Cni5j-K" version="20.7.4" type="github">
  <diagram id="zfaEt4gKCj_0UKEIoMqn" name="Page-1">
    <mxGraphModel dx="2284" dy="1315" grid="1" gridSize="10" guides="1" tooltips="1" connect="1" arrows="1" fold="1" page="1" pageScale="1" pageWidth="850" pageHeight="1100" math="0" shadow="0">
      <root>
        <mxCell id="0" />
        <mxCell id="1" parent="0" />
        <mxCell id="djWxkopLFHNJiZqGL8su-4" value="&lt;div&gt;buildpage_filter&lt;/div&gt;&lt;div&gt;vmode_par&lt;br&gt;&lt;/div&gt;" style="rounded=1;whiteSpace=wrap;html=1;" parent="1" vertex="1">
          <mxGeometry x="-130" y="610" width="120" height="60" as="geometry" />
        </mxCell>
        <mxCell id="otv5-7mAPzJiCk5ETvPB-1" value="hyphenate" style="rounded=1;whiteSpace=wrap;html=1;" vertex="1" parent="1">
          <mxGeometry x="50" y="350" width="120" height="60" as="geometry" />
        </mxCell>
        <mxCell id="otv5-7mAPzJiCk5ETvPB-4" value="ligaturing" style="rounded=1;whiteSpace=wrap;html=1;" vertex="1" parent="1">
          <mxGeometry x="250" y="320" width="120" height="60" as="geometry" />
        </mxCell>
        <mxCell id="otv5-7mAPzJiCk5ETvPB-5" value="&lt;div&gt;insert_local_par&lt;/div&gt;&lt;div&gt;new_graf&lt;br&gt;&lt;/div&gt;" style="rounded=1;whiteSpace=wrap;html=1;" vertex="1" parent="1">
          <mxGeometry x="330" y="770" width="120" height="60" as="geometry" />
        </mxCell>
        <mxCell id="otv5-7mAPzJiCk5ETvPB-6" value="kerning" style="rounded=1;whiteSpace=wrap;html=1;" vertex="1" parent="1">
          <mxGeometry x="410" y="480" width="120" height="60" as="geometry" />
        </mxCell>
        <mxCell id="otv5-7mAPzJiCk5ETvPB-7" value="&lt;div&gt;hpack_filter&lt;/div&gt;&lt;div&gt;hbox&lt;br&gt;&lt;/div&gt;" style="rounded=1;whiteSpace=wrap;html=1;" vertex="1" parent="1">
          <mxGeometry x="270" y="570" width="120" height="60" as="geometry" />
        </mxCell>
        <mxCell id="otv5-7mAPzJiCk5ETvPB-18" value="&lt;div&gt;buildpage_filter&lt;/div&gt;&lt;div&gt;hmode_par&lt;br&gt;&lt;/div&gt;" style="rounded=1;whiteSpace=wrap;html=1;" vertex="1" parent="1">
          <mxGeometry x="-130" y="690" width="120" height="60" as="geometry" />
        </mxCell>
        <mxCell id="otv5-7mAPzJiCk5ETvPB-19" value="&lt;div&gt;buildpage_filter&lt;/div&gt;&lt;div&gt;new_graf&lt;br&gt;&lt;/div&gt;" style="rounded=1;whiteSpace=wrap;html=1;" vertex="1" parent="1">
          <mxGeometry x="90" y="940" width="120" height="60" as="geometry" />
        </mxCell>
        <mxCell id="otv5-7mAPzJiCk5ETvPB-24" value="" style="endArrow=classic;html=1;rounded=0;" edge="1" parent="1" source="otv5-7mAPzJiCk5ETvPB-19" target="otv5-7mAPzJiCk5ETvPB-18">
          <mxGeometry width="50" height="50" relative="1" as="geometry">
            <mxPoint x="430" y="700" as="sourcePoint" />
            <mxPoint x="480" y="650" as="targetPoint" />
          </mxGeometry>
        </mxCell>
        <mxCell id="otv5-7mAPzJiCk5ETvPB-25" value="" style="endArrow=classic;html=1;rounded=0;sketch=0;strokeColor=default;" edge="1" parent="1" source="otv5-7mAPzJiCk5ETvPB-1" target="otv5-7mAPzJiCk5ETvPB-4">
          <mxGeometry width="50" height="50" relative="1" as="geometry">
            <mxPoint x="180" y="470" as="sourcePoint" />
            <mxPoint x="310" y="410" as="targetPoint" />
          </mxGeometry>
        </mxCell>
        <mxCell id="otv5-7mAPzJiCk5ETvPB-26" value="" style="endArrow=classic;html=1;rounded=0;sketch=0;strokeColor=default;" edge="1" parent="1" source="djWxkopLFHNJiZqGL8su-4" target="otv5-7mAPzJiCk5ETvPB-1">
          <mxGeometry width="50" height="50" relative="1" as="geometry">
            <mxPoint x="430" y="700" as="sourcePoint" />
            <mxPoint x="480" y="650" as="targetPoint" />
          </mxGeometry>
        </mxCell>
        <mxCell id="otv5-7mAPzJiCk5ETvPB-27" value="" style="endArrow=classic;html=1;rounded=0;sketch=0;strokeColor=default;" edge="1" parent="1" source="otv5-7mAPzJiCk5ETvPB-4" target="otv5-7mAPzJiCk5ETvPB-6">
          <mxGeometry width="50" height="50" relative="1" as="geometry">
            <mxPoint x="410" y="270" as="sourcePoint" />
            <mxPoint x="460" y="220" as="targetPoint" />
          </mxGeometry>
        </mxCell>
        <mxCell id="otv5-7mAPzJiCk5ETvPB-28" value="" style="endArrow=classic;html=1;rounded=0;sketch=0;strokeColor=default;" edge="1" parent="1" source="otv5-7mAPzJiCk5ETvPB-6" target="otv5-7mAPzJiCk5ETvPB-7">
          <mxGeometry width="50" height="50" relative="1" as="geometry">
            <mxPoint x="450" y="720" as="sourcePoint" />
            <mxPoint x="500" y="670" as="targetPoint" />
          </mxGeometry>
        </mxCell>
        <mxCell id="otv5-7mAPzJiCk5ETvPB-29" value="" style="endArrow=classic;html=1;rounded=0;sketch=0;strokeColor=default;" edge="1" parent="1" source="otv5-7mAPzJiCk5ETvPB-7" target="otv5-7mAPzJiCk5ETvPB-1">
          <mxGeometry width="50" height="50" relative="1" as="geometry">
            <mxPoint x="460" y="730" as="sourcePoint" />
            <mxPoint x="510" y="680" as="targetPoint" />
          </mxGeometry>
        </mxCell>
        <mxCell id="otv5-7mAPzJiCk5ETvPB-30" value="" style="endArrow=classic;html=1;rounded=0;sketch=0;strokeColor=default;" edge="1" parent="1" source="otv5-7mAPzJiCk5ETvPB-5" target="otv5-7mAPzJiCk5ETvPB-19">
          <mxGeometry width="50" height="50" relative="1" as="geometry">
            <mxPoint x="430" y="700" as="sourcePoint" />
            <mxPoint x="480" y="650" as="targetPoint" />
          </mxGeometry>
        </mxCell>
        <mxCell id="otv5-7mAPzJiCk5ETvPB-31" value="" style="endArrow=classic;html=1;rounded=0;sketch=0;strokeColor=default;" edge="1" parent="1" source="otv5-7mAPzJiCk5ETvPB-6" target="otv5-7mAPzJiCk5ETvPB-5">
          <mxGeometry width="50" height="50" relative="1" as="geometry">
            <mxPoint x="430" y="700" as="sourcePoint" />
            <mxPoint x="480" y="650" as="targetPoint" />
          </mxGeometry>
        </mxCell>
        <mxCell id="otv5-7mAPzJiCk5ETvPB-33" value="" style="endArrow=classic;html=1;rounded=0;sketch=0;strokeColor=default;" edge="1" parent="1" source="otv5-7mAPzJiCk5ETvPB-19" target="otv5-7mAPzJiCk5ETvPB-19">
          <mxGeometry width="50" height="50" relative="1" as="geometry">
            <mxPoint x="140" y="750" as="sourcePoint" />
            <mxPoint x="190" y="700" as="targetPoint" />
            <Array as="points">
              <mxPoint x="210" y="860" />
              <mxPoint x="110" y="860" />
            </Array>
          </mxGeometry>
        </mxCell>
        <mxCell id="otv5-7mAPzJiCk5ETvPB-34" value="" style="endArrow=classic;html=1;rounded=0;sketch=0;strokeColor=default;" edge="1" parent="1">
          <mxGeometry width="50" height="50" relative="1" as="geometry">
            <mxPoint x="450" y="720" as="sourcePoint" />
            <mxPoint x="500" y="670" as="targetPoint" />
          </mxGeometry>
        </mxCell>
        <mxCell id="otv5-7mAPzJiCk5ETvPB-35" value="" style="endArrow=classic;html=1;rounded=0;sketch=0;strokeColor=default;" edge="1" parent="1" source="otv5-7mAPzJiCk5ETvPB-40" target="otv5-7mAPzJiCk5ETvPB-1">
          <mxGeometry width="50" height="50" relative="1" as="geometry">
            <mxPoint x="460" y="730" as="sourcePoint" />
            <mxPoint x="80" y="320" as="targetPoint" />
          </mxGeometry>
        </mxCell>
        <mxCell id="otv5-7mAPzJiCk5ETvPB-36" value="" style="endArrow=classic;html=1;rounded=0;sketch=0;strokeColor=default;" edge="1" parent="1" source="otv5-7mAPzJiCk5ETvPB-19" target="otv5-7mAPzJiCk5ETvPB-40">
          <mxGeometry width="50" height="50" relative="1" as="geometry">
            <mxPoint x="80" y="730" as="sourcePoint" />
            <mxPoint x="130" y="680" as="targetPoint" />
          </mxGeometry>
        </mxCell>
        <mxCell id="otv5-7mAPzJiCk5ETvPB-37" value="" style="endArrow=classic;html=1;rounded=0;sketch=0;strokeColor=default;" edge="1" parent="1" source="otv5-7mAPzJiCk5ETvPB-18" target="otv5-7mAPzJiCk5ETvPB-19">
          <mxGeometry width="50" height="50" relative="1" as="geometry">
            <mxPoint x="550" y="820" as="sourcePoint" />
            <mxPoint x="600" y="770" as="targetPoint" />
          </mxGeometry>
        </mxCell>
        <mxCell id="otv5-7mAPzJiCk5ETvPB-39" value="" style="rounded=1;whiteSpace=wrap;html=1;" vertex="1" parent="1">
          <mxGeometry x="600" y="560" width="120" height="60" as="geometry" />
        </mxCell>
        <mxCell id="otv5-7mAPzJiCk5ETvPB-40" value="mlist_to_hlist" style="rounded=1;whiteSpace=wrap;html=1;" vertex="1" parent="1">
          <mxGeometry x="60" y="670" width="120" height="60" as="geometry" />
        </mxCell>
      </root>
    </mxGraphModel>
  </diagram>
</mxfile>
